HIERARCHY
ROOT mixamorig_Hips
{
	OFFSET 0.000000 0.890477 -0.000138
	CHANNELS 6 Xposition Yposition Zposition Xrotation Yrotation Zrotation
	JOINT mixamorig_RightUpLeg
	{
		OFFSET -8.224193 -6.337456 -1.245509
		CHANNELS 3 Xrotation Yrotation Zrotation
		JOINT mixamorig_RightLeg
		{
			OFFSET -0.853740 -41.205795 -1.113445
			CHANNELS 3 Xrotation Yrotation Zrotation
			JOINT mixamorig_RightFoot
			{
				OFFSET 0.305346 -37.074059 5.547482
				CHANNELS 3 Xrotation Yrotation Zrotation
				JOINT mixamorig_RightToeBase
				{
					OFFSET 0.275999 -7.386046 -10.162342
					CHANNELS 3 Xrotation Yrotation Zrotation
					End Site
					{
						OFFSET 1.527623 -0.641087 -9.418583
					}
				}
			}
		}
	}
	JOINT mixamorig_LeftUpLeg
	{
		OFFSET 8.238425 -6.144493 -1.530489
		CHANNELS 3 Xrotation Yrotation Zrotation
		JOINT mixamorig_LeftLeg
		{
			OFFSET 0.999181 -40.793915 0.038145
			CHANNELS 3 Xrotation Yrotation Zrotation
			JOINT mixamorig_LeftFoot
			{
				OFFSET -1.148513 -38.134243 4.265069
				CHANNELS 3 Xrotation Yrotation Zrotation
				JOINT mixamorig_LeftToeBase
				{
					OFFSET -0.465251 -6.961702 -10.249644
					CHANNELS 3 Xrotation Yrotation Zrotation
					End Site
					{
						OFFSET -0.959344 -0.686551 -9.361076
					}
				}
			}
		}
	}
	JOINT mixamorig_Spine
	{
		OFFSET -0.012521 9.659492 0.152576
		CHANNELS 3 Xrotation Yrotation Zrotation
		JOINT mixamorig_Spine1
		{
			OFFSET 0.013316 9.940590 -0.620916
			CHANNELS 3 Xrotation Yrotation Zrotation
			JOINT mixamorig_Spine2
			{
				OFFSET -0.024142 10.082199 -0.544315
				CHANNELS 3 Xrotation Yrotation Zrotation
				JOINT mixamorig_Neck
				{
					OFFSET -0.280692 18.101685 -1.792333
					CHANNELS 3 Xrotation Yrotation Zrotation
					JOINT mixamorig_Head
					{
						OFFSET -0.018573 9.067642 0.460133
						CHANNELS 3 Xrotation Yrotation Zrotation
						End Site
						{
							OFFSET 0.158257 16.422226 3.010605
						}
					}
				}
				JOINT mixamorig_RightShoulder
				{
					OFFSET -4.418977 12.360168 -1.870196
					CHANNELS 3 Xrotation Yrotation Zrotation
					JOINT mixamorig_RightArm
					{
						OFFSET -0.840364 -0.706100 9.418602
						CHANNELS 3 Xrotation Yrotation Zrotation
						JOINT mixamorig_RightForeArm
						{
							OFFSET -2.498498 0.041534 25.943676
							CHANNELS 3 Xrotation Yrotation Zrotation
							JOINT mixamorig_RightHand
							{
								OFFSET -2.575367 0.795197 26.809452
								CHANNELS 3 Xrotation Yrotation Zrotation
								JOINT mixamorig_RightHandIndex1
								{
									OFFSET 3.136251 -0.538528 8.955254
									CHANNELS 3 Xrotation Yrotation Zrotation
									JOINT mixamorig_RightHandIndex2
									{
										OFFSET 0.051750 0.018234 3.880755
										CHANNELS 3 Xrotation Yrotation Zrotation
										JOINT mixamorig_RightHandIndex3
										{
											OFFSET 0.159386 -0.111511 2.528431
											CHANNELS 3 Xrotation Yrotation Zrotation
											End Site
											{
												OFFSET -0.186133 -0.129547 2.317834
											}
										}
									}
								}
								JOINT mixamorig_RightHandThumb1
								{
									OFFSET 3.146857 -1.651413 2.139514
									CHANNELS 3 Xrotation Yrotation Zrotation
									JOINT mixamorig_RightHandThumb2
									{
										OFFSET 0.227379 -1.950211 3.563250
										CHANNELS 3 Xrotation Yrotation Zrotation
										JOINT mixamorig_RightHandThumb3
										{
											OFFSET -0.284211 -0.956070 2.684949
											CHANNELS 3 Xrotation Yrotation Zrotation
											End Site
											{
												OFFSET -0.050027 -1.039322 2.580839
											}
										}
									}
								}
								JOINT mixamorig_RightHandMiddle1
								{
									OFFSET 0.842868 0.059799 9.204017
									CHANNELS 3 Xrotation Yrotation Zrotation
									JOINT mixamorig_RightHandMiddle2
									{
										OFFSET 0.007599 0.118408 3.598334
										CHANNELS 3 Xrotation Yrotation Zrotation
										JOINT mixamorig_RightHandMiddle3
										{
											OFFSET -0.157197 -0.125458 2.928855
											CHANNELS 3 Xrotation Yrotation Zrotation
											End Site
											{
												OFFSET 0.172696 -0.014359 2.626183
											}
										}
									}
								}
								JOINT mixamorig_RightHandRing1
								{
									OFFSET -1.001290 0.004471 8.712891
									CHANNELS 3 Xrotation Yrotation Zrotation
									JOINT mixamorig_RightHandRing2
									{
										OFFSET -0.114342 0.268219 2.619466
										CHANNELS 3 Xrotation Yrotation Zrotation
										JOINT mixamorig_RightHandRing3
										{
											OFFSET 0.155752 0.013962 2.934787
											CHANNELS 3 Xrotation Yrotation Zrotation
											End Site
											{
												OFFSET -0.022682 -0.334305 2.395091
											}
										}
									}
								}
								JOINT mixamorig_RightHandPinky1
								{
									OFFSET -2.870745 -0.520309 8.239086
									CHANNELS 3 Xrotation Yrotation Zrotation
									JOINT mixamorig_RightHandPinky2
									{
										OFFSET -0.064124 0.097565 3.353874
										CHANNELS 3 Xrotation Yrotation Zrotation
										JOINT mixamorig_RightHandPinky3
										{
											OFFSET 0.054191 -0.056305 1.657426
											CHANNELS 3 Xrotation Yrotation Zrotation
											End Site
											{
												OFFSET 0.034473 0.045517 1.902615
											}
										}
									}
								}
							}
						}
					}
				}
				JOINT mixamorig_LeftShoulder
				{
					OFFSET 4.067368 12.365417 -1.818083
					CHANNELS 3 Xrotation Yrotation Zrotation
					JOINT mixamorig_LeftArm
					{
						OFFSET 0.880652 -0.717896 9.769979
						CHANNELS 3 Xrotation Yrotation Zrotation
						JOINT mixamorig_LeftForeArm
						{
							OFFSET 2.551281 -0.093887 25.986422
							CHANNELS 3 Xrotation Yrotation Zrotation
							JOINT mixamorig_LeftHand
							{
								OFFSET 2.550158 0.834869 25.953165
								CHANNELS 3 Xrotation Yrotation Zrotation
								JOINT mixamorig_LeftHandIndex1
								{
									OFFSET -3.091449 -0.508453 8.774550
									CHANNELS 3 Xrotation Yrotation Zrotation
									JOINT mixamorig_LeftHandIndex2
									{
										OFFSET 0.036697 0.078873 3.768008
										CHANNELS 3 Xrotation Yrotation Zrotation
										JOINT mixamorig_LeftHandIndex3
										{
											OFFSET -0.146443 -0.119202 2.548758
											CHANNELS 3 Xrotation Yrotation Zrotation
											End Site
											{
												OFFSET 0.171421 0.029297 2.617404
											}
										}
									}
								}
								JOINT mixamorig_LeftHandThumb1
								{
									OFFSET -3.148789 -1.646713 2.206965
									CHANNELS 3 Xrotation Yrotation Zrotation
									JOINT mixamorig_LeftHandThumb2
									{
										OFFSET 0.080562 -1.997971 3.556270
										CHANNELS 3 Xrotation Yrotation Zrotation
										JOINT mixamorig_LeftHandThumb3
										{
											OFFSET 0.511188 -1.178329 2.869402
											CHANNELS 3 Xrotation Yrotation Zrotation
											End Site
											{
												OFFSET -0.395684 -1.027771 2.132432
											}
										}
									}
								}
								JOINT mixamorig_LeftHandMiddle1
								{
									OFFSET -0.779669 -0.015396 9.112029
									CHANNELS 3 Xrotation Yrotation Zrotation
									JOINT mixamorig_LeftHandMiddle2
									{
										OFFSET 0.052194 -0.112549 3.389368
										CHANNELS 3 Xrotation Yrotation Zrotation
										JOINT mixamorig_LeftHandMiddle3
										{
											OFFSET 0.178288 -0.162537 3.259809
											CHANNELS 3 Xrotation Yrotation Zrotation
											End Site
											{
												OFFSET -0.168278 0.311600 2.538658
											}
										}
									}
								}
								JOINT mixamorig_LeftHandRing1
								{
									OFFSET 1.087882 0.018982 8.604859
									CHANNELS 3 Xrotation Yrotation Zrotation
									JOINT mixamorig_LeftHandRing2
									{
										OFFSET 0.149309 0.141083 2.758817
										CHANNELS 3 Xrotation Yrotation Zrotation
										JOINT mixamorig_LeftHandRing3
										{
											OFFSET -0.068528 -0.036240 2.975783
											CHANNELS 3 Xrotation Yrotation Zrotation
											End Site
											{
												OFFSET -0.030775 -0.086090 2.514544
											}
										}
									}
								}
								JOINT mixamorig_LeftHandPinky1
								{
									OFFSET 2.960986 -0.570038 8.064888
									CHANNELS 3 Xrotation Yrotation Zrotation
									JOINT mixamorig_LeftHandPinky2
									{
										OFFSET 0.094121 0.094238 2.893586
										CHANNELS 3 Xrotation Yrotation Zrotation
										JOINT mixamorig_LeftHandPinky3
										{
											OFFSET -0.031188 0.050095 1.974020
											CHANNELS 3 Xrotation Yrotation Zrotation
											End Site
											{
												OFFSET -0.027014 0.187729 1.913422
											}
										}
									}
								}
							}
						}
					}
				}
			}
		}
	}
}
MOTION
Frames: 4
Frame Time: 0.03333333333333333
-6.874505 -4.330676 0.169732 0.000000 0.890477 -0.000138 -176.511956 83.239730 174.358380 -14.282058 70.339039 16.758927 2.030218 11.449688 3.686063 -1.435927 3.904475 0.702404 -1.166113 7.235887 -2.434429 -174.853952 -24.024234 177.189345 3.129873 -38.765334 -2.534649 -1.732964 0.063821 3.490229 1.268326 1.330194 -0.750990 4.927378 -1.727271 -0.155113 1.607269 0.330942 -0.921600 1.654228 -6.176293 0.892388 2.973676 7.503947 0.927371 52.885040 -81.002819 53.210638 48.867844 24.623898 -40.484758 62.727346 61.208712 -75.979851 9.691839 5.448902 18.732508 7.387236 6.677083 0.403001 -0.356176 -2.979348 -0.467942 9.350016 3.219425 -5.670428 -24.781172 9.642147 32.742377 -5.382767 -3.523875 2.062094 -5.764223 -5.217411 -2.047844 10.736559 6.774252 -2.284085 1.472403 0.284215 -2.545697 3.440528 3.186209 -1.260391 7.345067 8.974248 1.142128 -1.453186 -2.805530 -1.794831 20.280436 4.465293 0.367776 14.116524 9.440198 -2.395098 -1.635689 0.586933 -0.690086 5.141339 2.347191 1.397845 41.541616 82.146201 -35.696290 57.280646 -21.158796 48.629990 40.503170 -66.872348 72.889361 0.708550 -9.522099 -45.910668 11.718483 -0.429837 1.426852 0.142902 4.009163 -0.807353 4.723547 -3.787488 -2.826734 -17.106916 -3.584010 -48.286994 -7.720617 3.482404 1.154199 -4.404364 28.649487 6.570893 3.882820 -2.202878 -0.727870 2.594220 -3.617767 2.260826 15.893029 4.628343 2.479456 1.255898 -4.441547 2.801662 3.195089 1.180147 1.227516 1.361017 -1.050634 -1.592378 0.223941 -2.751714 -0.223941 2.867590 0.074485 -1.607358 12.352805 1.393112 4.344234 
-6.874505 -4.330676 0.169732 0.000000 0.890477 -0.000138 -176.511956 83.239730 174.358380 -14.289499 70.336947 16.765637 2.019015 11.450091 3.687088 -1.446339 3.906444 0.696129 -1.166113 7.235887 -2.434429 -174.840883 -24.020991 177.195858 3.138050 -38.768589 -2.527169 -1.730179 0.053595 3.489403 1.268326 1.330194 -0.750990 4.927378 -1.727271 -0.155113 1.607269 0.330942 -0.921600 1.654228 -6.176293 0.892388 2.973676 7.503947 0.927371 52.885040 -81.002819 53.210638 48.867844 24.623898 -40.484758 62.633028 61.114251 -75.877202 9.691839 5.448902 18.732508 7.387236 6.677083 0.403001 -0.356176 -2.979348 -0.467942 9.350016 3.219425 -5.670428 -24.781172 9.642147 32.742377 -5.382767 -3.523875 2.062094 -5.764223 -5.217411 -2.047844 10.736559 6.774252 -2.284085 1.472403 0.284215 -2.545697 3.440528 3.186209 -1.260391 7.345067 8.974248 1.142128 -1.453186 -2.805530 -1.794831 20.280436 4.465293 0.367776 14.116524 9.440198 -2.395098 -1.635689 0.586933 -0.690086 5.141339 2.347191 1.397845 41.541616 82.146201 -35.696290 57.280646 -21.158796 48.629990 40.503170 -66.872348 72.889361 0.708550 -9.522099 -45.910668 11.718483 -0.429837 1.426852 0.142902 4.009163 -0.807353 4.723547 -3.787488 -2.826734 -17.106916 -3.584010 -48.286994 -7.720617 3.482404 1.154199 -4.404364 28.649487 6.570893 3.882820 -2.202878 -0.727870 2.594220 -3.617767 2.260826 15.893029 4.628343 2.479456 1.255898 -4.441547 2.801662 3.195089 1.180147 1.227516 1.361017 -1.050634 -1.592378 0.223941 -2.751714 -0.223941 2.867590 0.074485 -1.607358 12.352805 1.393112 4.344234 
-6.874505 -4.330676 0.169732 0.000000 0.890477 -0.000138 -176.511956 83.239730 174.358380 -14.455203 70.290128 16.911888 1.757517 11.466123 3.712354 -1.695504 3.950962 0.552920 -1.166113 7.235887 -2.434429 -174.535729 -23.949658 177.348613 3.328500 -38.850608 -2.353285 -1.659367 -0.179753 3.467560 1.268326 1.330194 -0.750990 4.927378 -1.727271 -0.155113 1.607269 0.330942 -0.921600 1.654228 -6.176293 0.892388 2.973676 7.503947 0.927371 52.885040 -81.002819 53.210638 48.867844 24.623898 -40.484758 62.657955 61.105712 -75.912016 9.691839 5.448902 18.732508 7.387236 6.677083 0.403001 -0.356176 -2.979348 -0.467942 9.350016 3.219425 -5.670428 -24.781172 9.642147 32.742377 -5.382767 -3.523875 2.062094 -5.764223 -5.217411 -2.047844 10.736559 6.774252 -2.284085 1.472403 0.284215 -2.545697 3.440528 3.186209 -1.260391 7.345067 8.974248 1.142128 -1.453186 -2.805530 -1.794831 20.280436 4.465293 0.367776 14.116524 9.440198 -2.395098 -1.635689 0.586933 -0.690086 5.141339 2.347191 1.397845 41.541616 82.146201 -35.696290 57.280646 -21.158796 48.629990 40.503170 -66.872348 72.889361 0.708550 -9.522099 -45.910668 11.718483 -0.429837 1.426852 0.142902 4.009163 -0.807353 4.723547 -3.787488 -2.826734 -17.106916 -3.584010 -48.286994 -7.720617 3.482404 1.154199 -4.404364 28.649487 6.570893 3.882820 -2.202878 -0.727870 2.594220 -3.617767 2.260826 15.893029 4.628343 2.479456 1.255898 -4.441547 2.801662 3.195089 1.180147 1.227516 1.361017 -1.050634 -1.592378 0.223941 -2.751714 -0.223941 2.867590 0.074485 -1.607358 12.352805 1.393112 4.344234 
-6.874505 -4.330676 0.169732 0.000000 0.890477 -0.000138 -176.511956 83.239730 174.358380 -14.414012 70.307327 16.842638 1.710572 11.539133 3.731113 -1.810475 3.943405 0.567457 -1.166113 7.235887 -2.434429 -174.481132 -23.979435 177.388708 3.360075 -38.934865 -2.330224 -1.576275 -0.166105 3.428863 1.268326 1.330194 -0.750990 4.927378 -1.727271 -0.155113 1.607269 0.330942 -0.921600 1.654228 -6.176293 0.892388 2.973676 7.503947 0.927371 52.885040 -81.002819 53.210638 48.867844 24.623898 -40.484758 62.682865 61.097166 -75.946813 9.691839 5.448902 18.732508 7.387236 6.677083 0.403001 -0.356176 -2.979348 -0.467942 9.350016 3.219425 -5.670428 -24.781172 9.642147 32.742377 -5.382767 -3.523875 2.062094 -5.764223 -5.217411 -2.047844 10.736559 6.774252 -2.284085 1.472403 0.284215 -2.545697 3.440528 3.186209 -1.260391 7.345067 8.974248 1.142128 -1.453186 -2.805530 -1.794831 20.280436 4.465293 0.367776 14.116524 9.440198 -2.395098 -1.635689 0.586933 -0.690086 5.141339 2.347191 1.397845 41.541616 82.146201 -35.696290 57.280646 -21.158796 48.629990 40.503170 -66.872348 72.889361 0.708550 -9.522099 -45.910668 11.718483 -0.429837 1.426852 0.142902 4.009163 -0.807353 4.723547 -3.787488 -2.826734 -17.106916 -3.584010 -48.286994 -7.720617 3.482404 1.154199 -4.404364 28.649487 6.570893 3.882820 -2.202878 -0.727870 2.594220 -3.617767 2.260826 15.893029 4.628343 2.479456 1.255898 -4.441547 2.801662 3.195089 1.180147 1.227516 1.361017 -1.050634 -1.592378 0.223941 -2.751714 -0.223941 2.867590 0.074485 -1.607358 12.352805 1.393112 4.344234 
